#N canvas 973 339 1916 998 10;
#X declare -lib mrpeach;
#X obj 551 -38 import mrpeach;
#X obj 410 23 udpreceive 9001;
#X obj 232 96 unpackOSC;
#X obj 70 145 routeOSC /rotation;
#X obj 70 197 unpack f f f;
#X text 396 407 up -1 \, down 1;
#X text 396 334 small -1 \, big 1;
#X text 361 485 happy -1 \, sad 1;
#X text 325 561 sad -1 \, surprise 1;
#X text 149 197 yaw \, pitch \, roll;
#X obj 594 109 bng 15 250 50 0 empty empty empty 17 7 0 10 -262144
-1 -1;
#X floatatom 617 215 5 0 0 0 - - -;
#X obj 617 188 line;
#X msg 644 160 0 1000;
#X msg 594 159 1000;
#X obj 644 133 delay 10;
#X obj 617 267 bng 15 250 50 0 empty empty empty 17 7 0 10 -262144
-1 -1;
#X msg 617 287 1;
#X obj 617 241 sel 0;
#X obj 663 240 sel 1000;
#X msg 663 285 0;
#X text 359 114 FACE PARAMETERS;
#X text 68 112 HEAD PARAMETERS;
#X text 589 82 FACE DETECTION;
#X floatatom 450 172 5 0 0 0 - - -;
#X floatatom 458 249 5 0 0 0 - - -;
#X floatatom 450 321 5 0 0 0 - - -;
#X floatatom 440 389 5 0 0 0 - - -;
#X floatatom 400 462 5 0 0 0 - - -;
#X floatatom 377 542 5 0 0 0 - - -;
#X text 401 267 close -1 \, open 1;
#X text 388 190 !teeth -1 \, teeth 1;
#X obj 363 172 s kFace::AU0;
#X obj 377 249 s kFace::AU1;
#X obj 368 320 s kFace::AU2;
#X obj 359 390 s kFace::AU3;
#X obj 320 463 s kFace::AU4;
#X obj 297 542 s kFace::AU5;
#X obj 617 344 s kFace::faceDetected;
#X obj 70 274 s kFace::yaw;
#X obj 104 250 s kFace::pitch;
#X obj 139 227 s kFace::roll;
#X text 363 134 Upper lip raiser;
#X text 378 212 Jaw lowerer;
#X text 368 283 Lip stretcher;
#X text 360 352 Brow lowerer;
#X text 322 425 Lip corner depressor;
#X text 300 506 Outer brow raiser;
#X obj 363 150 routeOSC /lipPosition;
#X obj 377 228 routeOSC /mouthOpen;
#X obj 367 299 routeOSC /mouthAmplitude;
#X obj 359 369 routeOSC /browLevel;
#X obj 320 443 routeOSC /mouthCurvature;
#X obj 297 521 routeOSC /browCurvature;
#X connect 1 0 2 0;
#X connect 1 0 10 0;
#X connect 2 0 3 0;
#X connect 2 0 48 0;
#X connect 2 0 49 0;
#X connect 2 0 50 0;
#X connect 2 0 51 0;
#X connect 2 0 52 0;
#X connect 2 0 53 0;
#X connect 3 0 4 0;
#X connect 4 0 39 0;
#X connect 4 1 40 0;
#X connect 4 2 41 0;
#X connect 10 0 15 0;
#X connect 10 0 14 0;
#X connect 11 0 18 0;
#X connect 11 0 19 0;
#X connect 12 0 11 0;
#X connect 13 0 12 0;
#X connect 14 0 12 0;
#X connect 15 0 13 0;
#X connect 16 0 17 0;
#X connect 17 0 38 0;
#X connect 18 0 16 0;
#X connect 19 0 20 0;
#X connect 20 0 38 0;
#X connect 48 0 24 0;
#X connect 48 0 32 0;
#X connect 49 0 25 0;
#X connect 49 0 33 0;
#X connect 50 0 26 0;
#X connect 50 0 34 0;
#X connect 51 0 27 0;
#X connect 51 0 35 0;
#X connect 52 0 28 0;
#X connect 52 0 36 0;
#X connect 53 0 29 0;
#X connect 53 0 37 0;
