#N canvas 248 0 1656 982 10;
#X declare -lib mrpeach;
#X obj 644 13 import mrpeach;
#X obj 400 13 udpreceive 9001;
#X obj 400 63 unpackOSC;
#X obj 668 134 routeOSC /rotation;
#X obj 668 186 unpack f f f;
#X obj 474 200 routeOSC /mouthOpen;
#X obj 471 132 routeOSC /lipPosition;
#X obj 468 267 routeOSC /mouthAmplitude;
#X obj 460 337 routeOSC /browLevel;
#X text 497 375 up -1 \, down 1;
#X text 517 306 small -1 \, big 1;
#X obj 432 406 routeOSC /mouthCurvature;
#X text 473 448 happy -1 \, sad 1;
#X obj 405 473 routeOSC /browCurvature;
#X text 433 513 sad -1 \, surprise 1;
#X text 747 186 yaw \, pitch \, roll;
#X obj 668 399 s soundLevelChange;
#X obj 737 253 s tempoChange;
#X obj 737 210 + 90;
#X obj 737 232 / 90;
#X obj 908 131 bng 15 250 50 0 empty empty empty 17 7 0 10 -262144
-1 -1;
#X floatatom 931 237 5 0 0 0 - - -;
#X obj 931 210 line;
#X msg 958 182 0 1000;
#X msg 908 181 1000;
#X obj 958 155 delay 10;
#X obj 931 289 bng 15 250 50 0 empty empty empty 17 7 0 10 -262144
-1 -1;
#X obj 880 310 noise~;
#X obj 889 388 dac~;
#X obj 891 359 *~ 0;
#X msg 931 309 1;
#X obj 931 263 sel 0;
#X obj 977 262 sel 1000;
#X msg 977 307 0;
#X text 496 172 1 !teeth -1 \, teeth 1;
#X text 498 239 2 open 1 \, close -1;
#N canvas 1431 8 472 514 happydetector 0;
#X obj 34 40 r lipPosition;
#X floatatom 34 60 5 0 0 0 - - -;
#X floatatom 131 59 5 0 0 0 - - -;
#X obj 116 134 &&;
#X obj 131 39 r mouthAmplitude;
#X obj 116 188 sel 1;
#X obj 221 353 s happy;
#X obj 116 218 bng 90 250 50 0 empty empty empty 17 7 0 10 -258113
-1 -1;
#X obj 221 331 float;
#X floatatom 242 58 5 0 0 0 - - -;
#X obj 242 39 r pitchChange;
#X obj 242 80 > 0;
#X obj 116 159 &&;
#X floatatom 33 103 5 0 0 0 - - -;
#X floatatom 131 102 5 0 0 0 - - -;
#X floatatom 243 103 5 0 0 0 - - -;
#X obj 116 342 s isHappy;
#X obj 34 81 > 0.15;
#X obj 131 80 > 0.2;
#X text 36 375;
#X text 129 18 0.2 to 1;
#X obj 249 249 - 0.2;
#X obj 248 295 + 0.3;
#X obj 248 272 * 0.875;
#X connect 0 0 1 0;
#X connect 1 0 17 0;
#X connect 2 0 18 0;
#X connect 3 0 12 0;
#X connect 4 0 2 0;
#X connect 4 0 21 0;
#X connect 5 0 7 0;
#X connect 7 0 8 0;
#X connect 7 0 16 0;
#X connect 8 0 6 0;
#X connect 9 0 11 0;
#X connect 10 0 9 0;
#X connect 11 0 12 1;
#X connect 11 0 15 0;
#X connect 12 0 5 0;
#X connect 17 0 3 0;
#X connect 17 0 13 0;
#X connect 18 0 3 1;
#X connect 18 0 14 0;
#X connect 21 0 23 0;
#X connect 22 0 8 1;
#X connect 23 0 22 0;
#X coords 0 0 10 10 0 0 0;
#X restore 157 245 pd happydetector;
#X obj 471 154 s lipPosition;
#X obj 468 288 s mouthAmplitude;
#X obj 474 221 s mouthOpen;
#X obj 460 358 s browLevel;
#X obj 432 427 s mouthCurvature;
#X obj 405 494 s browCurvature;
#N canvas 1005 483 564 499 saddetector 0;
#X floatatom 27 29 5 0 0 0 - - -;
#X floatatom 102 32 5 0 0 0 - - -;
#X obj 98 124 &&;
#X obj 98 255 bng 90 250 50 0 empty empty empty 17 7 0 10 -258113 -1
-1;
#X obj 98 231 sel 1;
#X obj 27 8 r browLevel;
#X obj 102 10 r mouthCurvature;
#X obj 206 11 r lipPosition;
#X floatatom 206 33 5 0 0 0 - - -;
#X obj 98 153 &&;
#X obj 212 367 float;
#X obj 212 390 s sad;
#X obj 100 55 > -0.5;
#X floatatom 368 32 5 0 0 0 - - -;
#X obj 368 13 r pitchChange;
#X obj 367 53 < 0;
#X obj 98 179 &&;
#X obj 295 13 r mouthOpen;
#X floatatom 294 36 5 0 0 0 - - -;
#X obj 98 205 &&;
#X floatatom 27 72 5 0 0 0 - - -;
#X floatatom 100 77 5 0 0 0 - - -;
#X floatatom 205 76 5 0 0 0 - - -;
#X floatatom 367 76 5 0 0 0 - - -;
#X floatatom 292 80 5 0 0 0 - - -;
#X obj 98 363 s isSad;
#X obj 27 50 > -0.05;
#X obj 292 58 < 0.1;
#X obj 206 53 > 0.3;
#X text 213 -12 0.3 to 0.9;
#X obj 239 285 - 0.3;
#X obj 239 310 * 1.166;
#X obj 239 334 + 0.3;
#X connect 0 0 26 0;
#X connect 1 0 12 0;
#X connect 2 0 9 0;
#X connect 3 0 10 0;
#X connect 3 0 25 0;
#X connect 4 0 3 0;
#X connect 5 0 0 0;
#X connect 6 0 1 0;
#X connect 7 0 8 0;
#X connect 7 0 30 0;
#X connect 8 0 28 0;
#X connect 9 0 16 0;
#X connect 10 0 11 0;
#X connect 12 0 2 1;
#X connect 12 0 21 0;
#X connect 13 0 15 0;
#X connect 14 0 13 0;
#X connect 15 0 23 0;
#X connect 15 0 19 1;
#X connect 16 0 19 0;
#X connect 17 0 18 0;
#X connect 18 0 27 0;
#X connect 19 0 4 0;
#X connect 26 0 2 0;
#X connect 26 0 20 0;
#X connect 27 0 24 0;
#X connect 27 0 16 1;
#X connect 28 0 9 1;
#X connect 28 0 22 0;
#X connect 30 0 31 0;
#X connect 31 0 32 0;
#X connect 32 0 10 1;
#X coords 0 0 10 10 0 0 0;
#X restore 157 268 pd saddetector;
#X text 467 107 FACE PARAMETERS;
#X text 667 108 HEAD PARAMETERS;
#X text 903 104 FACE DETECTION;
#X text 156 218 DETECTORS;
#X floatatom 558 154 5 0 0 0 - - -;
#X floatatom 548 221 5 0 0 0 - - -;
#X floatatom 571 289 5 0 0 0 - - -;
#X floatatom 534 357 5 0 0 0 - - -;
#X floatatom 536 427 5 0 0 0 - - -;
#X floatatom 503 494 5 0 0 0 - - -;
#X obj 91 165 s happy;
#X obj 170 167 s sad;
#X obj 234 166 s angry;
#X obj 307 164 s tender;
#X obj 135 104 routeOSC /happy /sad /angry /tender;
#X obj 156 144 print sad;
#X obj 221 145 print angry;
#X obj 297 144 print tender;
#X obj 81 144 print happy;
#N canvas 1447 500 453 482 angrydetector 0;
#X floatatom 30 -3 5 0 0 0 - - -;
#X floatatom 117 -3 5 0 0 0 - - -;
#X obj 113 91 &&;
#X obj 113 228 bng 90 250 50 0 empty empty empty 17 7 0 10 -258113
-1 -1;
#X obj 113 187 sel 1;
#X floatatom 193 -2 5 0 0 0 - - -;
#X obj 113 113 &&;
#X obj 30 -24 r lipPosition;
#X obj 193 -24 r browCurvature;
#X obj 193 18 < -0.1;
#X obj 117 -24 r browLevel;
#X obj 219 336 float;
#X obj 219 358 s angry;
#X obj 30 19 > 0.2;
#X floatatom 292 -6 5 0 0 0 - - -;
#X obj 292 -25 r pitchChange;
#X obj 292 14 < 0;
#X floatatom 31 40 5 0 0 0 - - -;
#X floatatom 117 41 5 0 0 0 - - -;
#X floatatom 191 41 5 0 0 0 - - -;
#X floatatom 292 36 5 0 0 0 - - -;
#X text 34 302 comment;
#X obj 113 330 s isAngry;
#X obj 117 19 > 0;
#X text 30 -42 0.2 to 0.5;
#X obj 245 301 + 0.3;
#X obj 245 256 - 0.2;
#X obj 245 278 * 2.33;
#X obj 380 -25 r mouthOpen;
#X floatatom 379 -2 5 0 0 0 - - -;
#X floatatom 377 42 5 0 0 0 - - -;
#X obj 377 20 > 0.1;
#X obj 113 136 &&;
#X obj 113 161 &&;
#X connect 0 0 13 0;
#X connect 0 0 26 0;
#X connect 1 0 23 0;
#X connect 2 0 6 0;
#X connect 3 0 11 0;
#X connect 3 0 22 0;
#X connect 4 0 3 0;
#X connect 5 0 9 0;
#X connect 6 0 32 0;
#X connect 7 0 0 0;
#X connect 8 0 5 0;
#X connect 9 0 6 1;
#X connect 9 0 19 0;
#X connect 10 0 1 0;
#X connect 11 0 12 0;
#X connect 13 0 2 0;
#X connect 13 0 17 0;
#X connect 14 0 16 0;
#X connect 15 0 14 0;
#X connect 16 0 20 0;
#X connect 16 0 32 1;
#X connect 23 0 2 1;
#X connect 23 0 18 0;
#X connect 25 0 11 1;
#X connect 26 0 27 0;
#X connect 27 0 25 0;
#X connect 28 0 29 0;
#X connect 29 0 31 0;
#X connect 30 0 33 1;
#X connect 31 0 30 0;
#X connect 32 0 33 0;
#X connect 33 0 4 0;
#X coords 0 0 10 10 0 0 0;
#X restore 157 291 pd angrydetector;
#N canvas 998 8 426 503 tenderdetector 0;
#X floatatom 21 -4 5 0 0 0 - - -;
#X floatatom 136 -6 5 0 0 0 - - -;
#X obj 69 81 &&;
#X obj 69 145 bng 90 250 50 0 empty empty empty 17 7 0 10 -258113 -1
-1;
#X obj 69 116 sel 1;
#X obj 195 254 float;
#X obj 195 276 s tender;
#X obj 135 -25 r browLevel;
#X obj 136 17 < -0.1;
#X obj 222 141 + 0.1;
#X obj 222 163 abs;
#X obj 222 186 * 7;
#X obj 222 208 + 0.3;
#X obj 21 -26 r mouthAmplitude;
#X floatatom 23 39 5 0 0 0 - - -;
#X floatatom 135 41 5 0 0 0 - - -;
#X obj 69 252 s isTender;
#X obj 22 18 < -0.3;
#X text 132 -46 -0.1 to -0.5;
#X connect 0 0 17 0;
#X connect 1 0 8 0;
#X connect 2 0 4 0;
#X connect 3 0 5 0;
#X connect 3 0 16 0;
#X connect 4 0 3 0;
#X connect 5 0 6 0;
#X connect 7 0 1 0;
#X connect 7 0 9 0;
#X connect 8 0 2 1;
#X connect 8 0 15 0;
#X connect 9 0 10 0;
#X connect 10 0 11 0;
#X connect 11 0 12 0;
#X connect 12 0 5 1;
#X connect 13 0 0 0;
#X connect 17 0 2 0;
#X connect 17 0 14 0;
#X coords 0 0 10 10 0 0 0;
#X restore 157 315 pd tenderdetector;
#X obj 99 33 routeOSC /emotionDetected;
#X obj 82 73 print;
#X obj 702 300 s pitchChange;
#N canvas 673 530 346 452 neutraldetector 0;
#X obj 57 51 r isHappy;
#X obj 206 51 r isSad;
#X obj 264 50 r isAngry;
#X obj 129 51 r isTender;
#X obj 134 106 bng 15 250 50 0 empty empty empty 17 7 0 10 -262144
-1 -1;
#X floatatom 157 212 5 0 0 0 - - -;
#X obj 157 185 line;
#X msg 184 157 0 1000;
#X msg 134 156 1000;
#X obj 184 130 delay 10;
#X obj 157 271 bng 90 250 50 0 empty empty empty 17 7 0 10 -258113
-1 -1;
#X obj 157 238 sel 0;
#X obj 246 382 float;
#X floatatom 273 336 5 0 0 0 - - -;
#X obj 246 404 s neutral;
#X connect 0 0 4 0;
#X connect 1 0 4 0;
#X connect 2 0 4 0;
#X connect 3 0 4 0;
#X connect 4 0 9 0;
#X connect 4 0 8 0;
#X connect 5 0 11 0;
#X connect 6 0 5 0;
#X connect 7 0 6 0;
#X connect 8 0 6 0;
#X connect 9 0 7 0;
#X connect 10 0 12 0;
#X connect 11 0 10 0;
#X connect 12 0 14 0;
#X connect 13 0 12 1;
#X restore 158 343 pd neutraldetector;
#X floatatom 718 273 5 0 0 0 - - -;
#X obj 881 334 /~ 200;
#X connect 1 0 2 0;
#X connect 1 0 20 0;
#X connect 2 0 3 0;
#X connect 2 0 5 0;
#X connect 2 0 6 0;
#X connect 2 0 7 0;
#X connect 2 0 8 0;
#X connect 2 0 11 0;
#X connect 2 0 13 0;
#X connect 2 0 58 0;
#X connect 2 0 65 0;
#X connect 3 0 4 0;
#X connect 4 0 16 0;
#X connect 4 1 67 0;
#X connect 4 1 69 0;
#X connect 4 2 18 0;
#X connect 5 0 39 0;
#X connect 5 0 49 0;
#X connect 6 0 37 0;
#X connect 6 0 48 0;
#X connect 7 0 38 0;
#X connect 7 0 50 0;
#X connect 8 0 40 0;
#X connect 8 0 51 0;
#X connect 11 0 41 0;
#X connect 11 0 52 0;
#X connect 13 0 42 0;
#X connect 13 0 53 0;
#X connect 18 0 19 0;
#X connect 19 0 17 0;
#X connect 20 0 25 0;
#X connect 20 0 24 0;
#X connect 21 0 31 0;
#X connect 21 0 32 0;
#X connect 22 0 21 0;
#X connect 23 0 22 0;
#X connect 24 0 22 0;
#X connect 25 0 23 0;
#X connect 26 0 30 0;
#X connect 27 0 70 0;
#X connect 29 0 28 0;
#X connect 29 0 28 1;
#X connect 30 0 29 1;
#X connect 31 0 26 0;
#X connect 32 0 33 0;
#X connect 33 0 29 1;
#X connect 58 0 62 0;
#X connect 58 1 59 0;
#X connect 58 2 60 0;
#X connect 58 3 61 0;
#X connect 65 0 66 0;
#X connect 70 0 29 0;
